<svg xmlns="http://www.w3.org/2000/svg" xmlns:xlink="http://www.w3.org/1999/xlink" display="none">
  <symbol viewBox="0 0 20 20" id="healthy" width="100%" height="100%" stroke="#4FC279" fill="#4FC279" >
    <rect x="1" y="1" width="18" height="18" rx="2" stroke-width="1" fill-opacity="0.05"></rect>
    <path d="M8.8308977,12.5866388 L6.07515658,9.81419624 C5.97494781,9.71398747 5.97494781,9.54697286 6.07515658,9.44676409 L6.44258873,9.07933194 C6.54279749,8.97912317 6.70981211,8.97912317 6.81002088,9.07933194 L8.88100209,11.1670146 C8.94780793,11.2338205 9.06471816,11.2338205 9.13152401,11.1670146 L13.1899791,7.07515658 C13.2901879,6.97494781 13.4572025,6.97494781 13.5574113,7.07515658 L13.9248434,7.44258873 C14.0250522,7.54279749 14.0250522,7.70981211 13.9248434,7.81002088 L9.19832985,12.5866388 C9.09812109,12.7035491 8.93110647,12.7035491 8.8308977,12.5866388 L8.8308977,12.5866388 Z" stroke-width="0.75"></path>
  </symbol>
  <symbol viewBox="0 0 20 20" id="minor" width="100%" height="100%">
    <circle fill="#FF9A3C" cx="10" cy="10" r="10"></circle>
    <g transform="translate(9, 5)" fill="#FFFFFF">
      <path d="M1.18577075,7.27272727 C0.513833992,7.27272727 0,7.78656126 0,8.45849802 C0,9.13043478 0.513833992,9.64426877 1.18577075,9.64426877 C1.85770751,9.64426877 2.3715415,9.13043478 2.3715415,8.45849802 C2.3715415,7.78656126 1.85770751,7.27272727 1.18577075,7.27272727"></path>
      <path d="M1.97628458,0 L0.395256917,0 C0.158102767,0 0,0.158102767 0,0.395256917 L0,5.53359684 C0,5.77075099 0.158102767,5.92885375 0.395256917,5.92885375 L1.97628458,5.92885375 C2.21343874,5.92885375 2.3715415,5.77075099 2.3715415,5.53359684 L2.3715415,0.395256917 C2.3715415,0.158102767 2.21343874,0 1.97628458,0"></path>
    </g>
  </symbol>
  <symbol viewBox="0 0 20 20" id="major" width="100%" height="100%">
    <circle
      fill="#D4504C" cx="10" cy="10" r="10"></circle>
    <path d="M10.9090909,10.6818182 L14.6590909,10.6818182 C14.8409091,10.6818182 15,10.5227273 15,10.3409091 L15,9.65909091 C15,9.47727273 14.8409091,9.31818182 14.6590909,9.31818182 L10.9090909,9.31818182 C10.7727273,9.31818182 10.6818182,9.22727273 10.6818182,9.09090909 L10.6818182,5.34090909 C10.6818182,5.15909091 10.5227273,5 10.3409091,5 L9.65909091,5 C9.47727273,5 9.31818182,5.15909091 9.31818182,5.34090909 L9.31818182,9.09090909 C9.31818182,9.22727273 9.22727273,9.31818182 9.09090909,9.31818182 L5.34090909,9.31818182 C5.15909091,9.31818182 5,9.47727273 5,9.65909091 L5,10.3409091 C5,10.5227273 5.15909091,10.6818182 5.34090909,10.6818182 L9.09090909,10.6818182 C9.22727273,10.6818182 9.31818182,10.7727273 9.31818182,10.9090909 L9.31818182,14.6590909 C9.31818182,14.8409091 9.47727273,15 9.65909091,15 L10.3409091,15 C10.5227273,15 10.6818182,14.8409091 10.6818182,14.6590909 L10.6818182,10.9090909 C10.6818182,10.7727273 10.7727273,10.6818182 10.9090909,10.6818182" stroke="#FFFFFF" stroke-width="0.5" fill="#FFFFFF" transform="rotate(45, 10, 10)"></path>
  </symbol>
  <symbol viewBox="0 0 20 20" id="maintenance" width="100%" height="100%">
    <circle fill="#7F8DE1" cx="10" cy="10" r="10"></circle>
    <path d="M14.8693328,7.12533333 C14.832666,7.00583333 14.6799987,6.97 14.591665,7.05833333 L12.8939912,8.756 C12.763824,8.88616667 12.5528231,8.88616667 12.4226559,8.756 L11.2439843,7.57733333 C11.1138171,7.44716667 11.1138171,7.23616667 11.2439843,7.106 L12.9416581,5.40833333 C13.0299918,5.32 12.9941583,5.16733333 12.8746578,5.13066667 C12.5976567,5.0455 12.3036554,5 11.9999875,5 C10.2308135,5 8.81897425,6.532 9.01897508,8.34166667 C9.04930854,8.61666667 9.11964217,8.88033333 9.22114259,9.12883333 L5.34162642,13.0083333 C4.88612453,13.464 4.88612453,14.2026667 5.34162642,14.6583333 C5.56946071,14.886 5.86812862,15 6.16662986,15 C6.4651311,15 6.76379902,14.886 6.9916333,14.6583333 L10.8711495,10.7788333 C11.1196505,10.8803333 11.3833183,10.9506667 11.6583194,10.981 C13.4679936,11.181 15,9.76916667 15,8 C15,7.69633333 14.9544998,7.40233333 14.8693328,7.12533333" fill="#FFFFFF"></path>
  </symbol>
  <symbol viewBox="0 0 24 24" id="informational" width="100%" height="100%">
    <circle fill="#005FB2" cx="12" cy="12" r="12"></circle>
    <path d="M11 17.8l-.3-.3c-.5-.3-.5-.9-.5-1.2v-.8c0-.3-.2-.5-.4-.5H8c-.3 0-.5.2-.5.5v2.3c0 .8.5 1.4 1.2 1.4h1.5c.9 0 1-.6 1-.6s.1-.5-.2-.8zm6.8-8.2V5.5c0-.7-1-.9-1.4-.4l-2.7 2.5c-.5.3-1 .5-1.5.5H7.6C6 8.1 4.8 9.5 4.8 11v.1c0 1.5 1.2 2.7 2.8 2.7h4.6c.6 0 1.1.2 1.5.6l2.7 2.6c.4.4 1.4.3 1.4-.4v-4.1c.9 0 1.4-.6 1.4-1.5 0-.8-.6-1.4-1.4-1.4z" fill="#FFFFFF"></path>
  </symbol>
  <symbol viewBox="0 0 27 27" id="healthy-minor" width="100%" height="100%">
    <g stroke="#4FC279" fill="#4FC279">
      <rect x="1" y="1" width="18" height="18" rx="2" stroke-width="1" fill-opacity="0.05"></rect>
      <path d="M8.8308977,12.5866388 L6.07515658,9.81419624 C5.97494781,9.71398747 5.97494781,9.54697286 6.07515658,9.44676409 L6.44258873,9.07933194 C6.54279749,8.97912317 6.70981211,8.97912317 6.81002088,9.07933194 L8.88100209,11.1670146 C8.94780793,11.2338205 9.06471816,11.2338205 9.13152401,11.1670146 L13.1899791,7.07515658 C13.2901879,6.97494781 13.4572025,6.97494781 13.5574113,7.07515658 L13.9248434,7.44258873 C14.0250522,7.54279749 14.0250522,7.70981211 13.9248434,7.81002088 L9.19832985,12.5866388 C9.09812109,12.7035491 8.93110647,12.7035491 8.8308977,12.5866388 L8.8308977,12.5866388 Z" stroke-width="0.75"></path>
    </g>
    <g transform="translate(12.000000, 12.000000)">
      <g >
        <circle stroke="#FFFFFF" fill="#FF9A3C" cx="7" cy="7" r="7" stroke-width="1" ></circle>
      </g>
      <g transform="translate(6.000000, 3.000000)" fill="#FFFFFF">
        <path d="M0.948616601,5.81818182 C0.411067194,5.81818182 0,6.22924901 0,6.76679842 C0,7.30434783 0.411067194,7.71541502 0.948616601,7.71541502 C1.48616601,7.71541502 1.8972332,7.30434783 1.8972332,6.76679842 C1.8972332,6.22924901 1.48616601,5.81818182 0.948616601,5.81818182"></path>
        <path d="M1.58102767,0 L0.316205534,0 C0.126482213,0 0,0.126482213 0,0.316205534 L0,4.42687747 C0,4.61660079 0.126482213,4.743083 0.316205534,4.743083 L1.58102767,4.743083 C1.77075099,4.743083 1.8972332,4.61660079 1.8972332,4.42687747 L1.8972332,0.316205534 C1.8972332,0.126482213 1.77075099,0 1.58102767,0"></path>
      </g>
    </g>
  </symbol>
  <symbol viewBox="0 0 27 27" id="healthy-major" width="100%" height="100%">
    <g stroke="#4FC279" fill="#4FC279">
      <rect x="1" y="1" width="18" height="18" rx="2" stroke-width="1" fill-opacity="0.05"></rect>
      <path d="M8.8308977,12.5866388 L6.07515658,9.81419624 C5.97494781,9.71398747 5.97494781,9.54697286 6.07515658,9.44676409 L6.44258873,9.07933194 C6.54279749,8.97912317 6.70981211,8.97912317 6.81002088,9.07933194 L8.88100209,11.1670146 C8.94780793,11.2338205 9.06471816,11.2338205 9.13152401,11.1670146 L13.1899791,7.07515658 C13.2901879,6.97494781 13.4572025,6.97494781 13.5574113,7.07515658 L13.9248434,7.44258873 C14.0250522,7.54279749 14.0250522,7.70981211 13.9248434,7.81002088 L9.19832985,12.5866388 C9.09812109,12.7035491 8.93110647,12.7035491 8.8308977,12.5866388 L8.8308977,12.5866388 Z" stroke-width="0.75"></path>
    </g>
    <g transform="translate(12.000000, 12.000000)">
      <g >
        <circle stroke="#FFFFFF"  fill="#D4504C" cx="7" cy="7" r="7" stroke-width="1" ></circle>
      </g>
      <g fill="#FFFFFF">
        <path d="M7.72727273,7.54545455 L10.7272727,7.54545455 C10.8727273,7.54545455 11,7.41818182 11,7.27272727 L11,6.72727273 C11,6.58181818 10.8727273,6.45454545 10.7272727,6.45454545 L7.72727273,6.45454545 C7.61818182,6.45454545 7.54545455,6.38181818 7.54545455,6.27272727 L7.54545455,3.27272727 C7.54545455,3.12727273 7.41818182,3 7.27272727,3 L6.72727273,3 C6.58181818,3 6.45454545,3.12727273 6.45454545,3.27272727 L6.45454545,6.27272727 C6.45454545,6.38181818 6.38181818,6.45454545 6.27272727,6.45454545 L3.27272727,6.45454545 C3.12727273,6.45454545 3,6.58181818 3,6.72727273 L3,7.27272727 C3,7.41818182 3.12727273,7.54545455 3.27272727,7.54545455 L6.27272727,7.54545455 C6.38181818,7.54545455 6.45454545,7.61818182 6.45454545,7.72727273 L6.45454545,10.7272727 C6.45454545,10.8727273 6.58181818,11 6.72727273,11 L7.27272727,11 C7.41818182,11 7.54545455,10.8727273 7.54545455,10.7272727 L7.54545455,7.72727273 C7.54545455,7.61818182 7.61818182,7.54545455 7.72727273,7.54545455" stroke="#FFFFFF" stroke-width="0.5" fill="#FFFFFF" transform="rotate(45, 7, 7)"></path>
      </g>
    </g>
  </symbol>
  <symbol viewBox="0 0 27 27" id="healthy-maintenance" width="100%" height="100%">
    <g stroke="#4FC279" fill="#4FC279">
      <rect x="1" y="1" width="18" height="18" rx="2" stroke-width="1" fill-opacity="0.05"></rect>
      <path d="M8.8308977,12.5866388 L6.07515658,9.81419624 C5.97494781,9.71398747 5.97494781,9.54697286 6.07515658,9.44676409 L6.44258873,9.07933194 C6.54279749,8.97912317 6.70981211,8.97912317 6.81002088,9.07933194 L8.88100209,11.1670146 C8.94780793,11.2338205 9.06471816,11.2338205 9.13152401,11.1670146 L13.1899791,7.07515658 C13.2901879,6.97494781 13.4572025,6.97494781 13.5574113,7.07515658 L13.9248434,7.44258873 C14.0250522,7.54279749 14.0250522,7.70981211 13.9248434,7.81002088 L9.19832985,12.5866388 C9.09812109,12.7035491 8.93110647,12.7035491 8.8308977,12.5866388 L8.8308977,12.5866388 Z" stroke-width="0.75"></path>
    </g>
    <g transform="translate(12.000000, 12.000000)">
      <g >
        <circle stroke="#FFFFFF" fill="#7F8DE1" cx="7" cy="7" r="7" stroke-width="1" ></circle>
      </g>
      <g fill="#FFFFFF">
        <path d="M10.8954662,4.70026667 C10.8661328,4.60466667 10.7439989,4.576 10.673332,4.64666667 L9.31519298,6.0048 C9.21105921,6.10893333 9.04225851,6.10893333 8.93812474,6.0048 L7.99518748,5.06186667 C7.89105371,4.95773333 7.89105371,4.78893333 7.99518748,4.6848 L9.35332647,3.32666667 C9.42399343,3.256 9.39532665,3.13386667 9.29972625,3.10453333 C9.07812533,3.0364 8.84292435,3 8.59999,3 C7.18465077,3 6.0551794,4.2256 6.21518006,5.67333333 C6.23944683,5.89333333 6.29571373,6.10426667 6.37691407,6.30306667 L3.27330114,9.40666667 C2.90889962,9.7712 2.90889962,10.3621333 3.27330114,10.7266667 C3.45556856,10.9088 3.69450289,11 3.93330389,11 C4.17210488,11 4.41103921,10.9088 4.59330664,10.7266667 L7.69691957,7.62306667 C7.8957204,7.70426667 8.10665461,7.76053333 8.32665553,7.7848 C9.77439489,7.9448 11,6.81533333 11,5.4 C11,5.15706667 10.9635998,4.92186667 10.8954662,4.70026667" fill="#FFFFFF"></path>
      </g>
    </g>
  </symbol>
  <symbol viewBox="0 0 27 27" id="healthy-informational" width="100%" height="100%">
    <g stroke="#4FC279" fill="#4FC279">
      <rect x="1" y="1" width="18" height="18" rx="2" stroke-width="1" fill-opacity="0.05"></rect>
      <path d="M8.8308977,12.5866388 L6.07515658,9.81419624 C5.97494781,9.71398747 5.97494781,9.54697286 6.07515658,9.44676409 L6.44258873,9.07933194 C6.54279749,8.97912317 6.70981211,8.97912317 6.81002088,9.07933194 L8.88100209,11.1670146 C8.94780793,11.2338205 9.06471816,11.2338205 9.13152401,11.1670146 L13.1899791,7.07515658 C13.2901879,6.97494781 13.4572025,6.97494781 13.5574113,7.07515658 L13.9248434,7.44258873 C14.0250522,7.54279749 14.0250522,7.70981211 13.9248434,7.81002088 L9.19832985,12.5866388 C9.09812109,12.7035491 8.93110647,12.7035491 8.8308977,12.5866388 L8.8308977,12.5866388 Z" stroke-width="0.75"></path>
    </g>
    <g transform="translate(12.000000, 12.000000) scale(0.6)">
      <circle fill="#005FB2" cx="12" cy="12" r="12"></circle>
          <path d="M11 17.8l-.3-.3c-.5-.3-.5-.9-.5-1.2v-.8c0-.3-.2-.5-.4-.5H8c-.3 0-.5.2-.5.5v2.3c0 .8.5 1.4 1.2 1.4h1.5c.9 0 1-.6 1-.6s.1-.5-.2-.8zm6.8-8.2V5.5c0-.7-1-.9-1.4-.4l-2.7 2.5c-.5.3-1 .5-1.5.5H7.6C6 8.1 4.8 9.5 4.8 11v.1c0 1.5 1.2 2.7 2.8 2.7h4.6c.6 0 1.1.2 1.5.6l2.7 2.6c.4.4 1.4.3 1.4-.4v-4.1c.9 0 1.4-.6 1.4-1.5 0-.8-.6-1.4-1.4-1.4z" fill="#FFFFFF"></path>
    </g>
  </symbol>
</svg>
