<svg xmlns="http://www.w3.org/2000/svg" xmlns:xlink="http://www.w3.org/1999/xlink" display="none">
  <g viewBox="0 0 24 24" id="healthy" width="100%" height="100%" stroke="none" stroke-width="1" fill="none" fill-rule="evenodd" >
    <path d="M22.08,24 L1.92,24 C0.85968,24 0,23.14032 0,22.08 L0,1.92 C0,0.85968 0.85968,0 1.92,0 L22.08,0 C23.14032,0 24,0.85968 24,1.92 L24,22.08 C24,23.14032 23.14032,24 22.08,24" id="Box" fill="#4FC279"></path>
    <path d="M10.5386217,14.9832982 L7.09394571,11.5177452 C6.96868476,11.3924842 6.96868476,11.1837155 7.09394571,11.0584546 L7.55323591,10.5991655 C7.67849684,10.4739046 7.88726512,10.4739046 8.01252605,10.5991655 L10.601253,13.2087685 C10.6847592,13.2922748 10.8308983,13.2922748 10.9144045,13.2087685 L15.9874731,8.09394571 C16.112734,7.96868476 16.3215028,7.96868476 16.4467637,8.09394571 L16.9060543,8.55323591 C17.0313152,8.67849684 17.0313152,8.88726512 16.9060543,9.01252605 L10.9979123,14.9832982 C10.8726514,15.1294357 10.6638827,15.1294357 10.5386217,14.9832982 L10.5386217,14.9832982 L10.5386217,14.9832982 Z" id="Icon" stroke="#FFFFFF" stroke-width="0.75" fill="#FFFFFF"></path>
  </g>
</svg>
